<svg width="30" height="30" viewBox="0 0 30 30" fill="none" xmlns="http://www.w3.org/2000/svg">
<path d="M13.2424 29.4074L0.529695 16.3712C0.337079 16.1737 0.200321 15.9597 0.119422 15.7293C0.039807 15.4989 0 15.252 0 14.9886C0 14.7252 0.039807 14.4783 0.119422 14.2479C0.200321 14.0175 0.337079 13.8035 0.529695 13.606L13.2424 0.569764C13.5955 0.207647 14.0366 0.0180299 14.5656 0.000911626C15.096 -0.0148898 15.5538 0.174727 15.939 0.569764C16.3242 0.931881 16.5252 1.3842 16.5419 1.92672C16.5573 2.47055 16.3724 2.93998 15.9872 3.33502L6.54896 13.0134H28.0738C28.6196 13.0134 29.0774 13.2024 29.4472 13.5803C29.8157 13.9595 30 14.429 30 14.9886C30 15.5482 29.8157 16.017 29.4472 16.3949C29.0774 16.7742 28.6196 16.9638 28.0738 16.9638H6.54896L15.9872 26.6422C16.3403 27.0043 16.5252 27.4652 16.5419 28.0248C16.5573 28.5845 16.3724 29.0453 15.9872 29.4074C15.634 29.8025 15.1846 30 14.6388 30C14.0931 30 13.6276 29.8025 13.2424 29.4074Z" fill="white"/>
</svg>
