<svg width="30" height="30" viewBox="0 0 30 30" fill="none" xmlns="http://www.w3.org/2000/svg">
<rect width="30" height="30" fill="#005C3D"/>
<path d="M9.1459 9.85414C9.09941 9.80766 9.06254 9.75247 9.03738 9.69173C9.01222 9.63099 8.99927 9.56589 8.99927 9.50014C8.99927 9.4344 9.01222 9.3693 9.03738 9.30856C9.06254 9.24782 9.09941 9.19263 9.1459 9.14614C9.19239 9.09966 9.24758 9.06278 9.30832 9.03762C9.36906 9.01246 9.43416 8.99951 9.4999 8.99951C9.56564 8.99951 9.63074 9.01246 9.69148 9.03762C9.75222 9.06278 9.80741 9.09966 9.8539 9.14614L14.9999 14.2931L20.1459 9.14614C20.1924 9.09966 20.2476 9.06278 20.3083 9.03762C20.3691 9.01246 20.4342 8.99951 20.4999 8.99951C20.5656 8.99951 20.6307 9.01246 20.6915 9.03762C20.7522 9.06278 20.8074 9.09966 20.8539 9.14614C20.9004 9.19263 20.9373 9.24782 20.9624 9.30856C20.9876 9.3693 21.0005 9.4344 21.0005 9.50014C21.0005 9.56589 20.9876 9.63099 20.9624 9.69173C20.9373 9.75247 20.9004 9.80766 20.8539 9.85414L15.7069 15.0001L20.8539 20.1461C20.9004 20.1926 20.9373 20.2478 20.9624 20.3086C20.9876 20.3693 21.0005 20.4344 21.0005 20.5001C21.0005 20.5659 20.9876 20.631 20.9624 20.6917C20.9373 20.7525 20.9004 20.8077 20.8539 20.8541C20.8074 20.9006 20.7522 20.9375 20.6915 20.9627C20.6307 20.9878 20.5656 21.0008 20.4999 21.0008C20.4342 21.0008 20.3691 20.9878 20.3083 20.9627C20.2476 20.9375 20.1924 20.9006 20.1459 20.8541L14.9999 15.7071L9.8539 20.8541C9.80741 20.9006 9.75222 20.9375 9.69148 20.9627C9.63074 20.9878 9.56564 21.0008 9.4999 21.0008C9.43416 21.0008 9.36906 20.9878 9.30832 20.9627C9.24758 20.9375 9.19239 20.9006 9.1459 20.8541C9.09941 20.8077 9.06254 20.7525 9.03738 20.6917C9.01222 20.631 8.99927 20.5659 8.99927 20.5001C8.99927 20.4344 9.01222 20.3693 9.03738 20.3086C9.06254 20.2478 9.09941 20.1926 9.1459 20.1461L14.2929 15.0001L9.1459 9.85414Z" fill="white"/>
</svg>
