<svg width="11" height="79" viewBox="0 0 11 79" fill="none" xmlns="http://www.w3.org/2000/svg">
<path opacity="0.25" d="M0 2.82V1.49012e-08L5.48 4.4L10.36 0.58V3.4L7.24 5.84L10.36 8.34V11.08L5.5 7.2L0 11.52V8.72L3.72 5.78L0 2.82ZM0 36.3356V33.5156L5.48 37.9156L10.36 34.0956V36.9156L7.24 39.3556L10.36 41.8556V44.5956L5.5 40.7156L0 45.0356V42.2356L3.72 39.2956L0 36.3356ZM0 69.8513V67.0313L5.48 71.4313L10.36 67.6113V70.4313L7.24 72.8713L10.36 75.3713V78.1113L5.5 74.2313L0 78.5513V75.7513L3.72 72.8113L0 69.8513Z" fill="#FF0000"/>
</svg>
