<svg width="27" height="24" viewBox="0 0 27 24" fill="none" xmlns="http://www.w3.org/2000/svg">
<path d="M16.5822 16.1261C16.5586 16.0052 16.5453 15.8822 16.5453 15.7572C16.5453 15.1896 16.8179 14.6629 17.157 14.2264C17.7544 13.4589 18.0833 12.5152 18.0833 11.5408C18.0833 10.4588 17.6827 9.41261 16.9542 8.61543C16.3342 7.93609 15.7563 7.03953 15.7563 6.05689C15.7563 5.88577 15.7738 5.71773 15.8055 5.55379C16.3681 2.65915 20.5312 2.65915 21.0937 5.55379C21.1255 5.71773 21.1429 5.88577 21.1429 6.05689C21.1429 7.03953 20.565 7.93609 19.9451 8.61543C19.2166 9.41261 18.817 10.4588 18.817 11.5408C18.817 12.5152 19.1459 13.4589 19.7422 14.2264C20.0814 14.6629 20.3539 15.1896 20.3539 15.7572C20.3539 15.8822 20.3406 16.0052 20.3171 16.1261C19.9092 18.1529 16.991 18.1529 16.5822 16.1261Z" fill="#EE3434"/>
<path d="M7.64374 7.05522C7.61915 7.17613 7.60583 7.29909 7.60583 7.42409C7.60583 7.99175 7.87941 8.51944 8.21754 8.95492C8.81491 9.72238 9.14382 10.6661 9.14382 11.6405C9.14382 12.7225 8.74421 13.7687 8.01568 14.5659C7.39475 15.2452 6.81787 16.1418 6.81787 17.1244C6.81787 17.2956 6.83529 17.4626 6.86705 17.6275C7.42959 20.5222 11.5917 20.5222 12.1542 17.6275C12.186 17.4626 12.2034 17.2956 12.2034 17.1244C12.2034 16.1418 11.6255 15.2452 11.0056 14.5659C10.2771 13.7687 9.87747 12.7225 9.87747 11.6405C9.87747 10.6661 10.2064 9.72238 10.8038 8.95492C11.1419 8.51944 11.4144 7.99175 11.4144 7.42409C11.4144 7.29909 11.4011 7.17613 11.3776 7.05522C10.9697 5.02847 8.05155 5.02847 7.64374 7.05522Z" fill="#EE3434"/>
<path d="M12.1135 21.6582C12.0889 21.5384 12.0756 21.4154 12.0756 21.2904C12.0756 20.7227 12.3482 20.195 12.6873 19.7596C13.2847 18.9921 13.6136 18.0484 13.6136 17.074C13.6136 15.9909 13.213 14.9458 12.4855 14.1486C12.1002 13.7264 11.7313 13.2203 11.5069 12.6629L11.5049 12.6567C11.5038 12.6547 11.5028 12.6516 11.5018 12.6495C11.4362 12.4907 11.384 12.3216 11.3461 12.1403C11.345 12.1341 11.343 12.127 11.342 12.1198C11.3399 12.1106 11.3379 12.1024 11.3368 12.0921C11.3338 12.0809 11.3317 12.0686 11.3297 12.0563C11.3286 12.0501 11.3276 12.044 11.3266 12.0378C11.3215 12.0122 11.3174 11.9856 11.3143 11.9599C11.3133 11.9538 11.3122 11.9477 11.3112 11.9415C11.3081 11.92 11.3061 11.8985 11.303 11.8759C11.302 11.8698 11.302 11.8626 11.301 11.8554C11.2979 11.8298 11.2958 11.8022 11.2938 11.7755C11.2938 11.7714 11.2938 11.7673 11.2928 11.7632C11.2917 11.7396 11.2907 11.7171 11.2897 11.6935C11.2887 11.6864 11.2887 11.6792 11.2887 11.671C11.2876 11.6444 11.2866 11.6167 11.2866 11.589C11.2866 11.5624 11.2876 11.5347 11.2887 11.5081C11.2887 11.4999 11.2887 11.4927 11.2897 11.4855C11.2907 11.462 11.2917 11.4394 11.2928 11.4159C11.2938 11.4118 11.2938 11.4077 11.2938 11.4036C11.2958 11.3769 11.2979 11.3493 11.301 11.3226C11.302 11.3165 11.302 11.3093 11.303 11.3031C11.3061 11.2806 11.3081 11.2591 11.3112 11.2376C11.3122 11.2314 11.3133 11.2253 11.3143 11.2191C11.3174 11.1935 11.3215 11.1669 11.3266 11.1413C11.3276 11.1351 11.3286 11.129 11.3297 11.1228C11.3317 11.1105 11.3338 11.0982 11.3368 11.0869C11.3379 11.0777 11.3399 11.0685 11.342 11.0593C11.343 11.0521 11.345 11.0449 11.3461 11.0388C11.384 10.8574 11.4362 10.6873 11.5018 10.5295C11.5028 10.5275 11.5038 10.5254 11.5049 10.5224L11.5069 10.5162C11.7313 9.95881 12.1002 9.45263 12.4855 9.03048C13.213 8.2333 13.6136 7.18714 13.6136 6.10511C13.6136 5.13067 13.2847 4.18697 12.6873 3.41951C12.3482 2.98403 12.0756 2.45634 12.0756 1.88868C12.0756 1.76368 12.0889 1.64072 12.1135 1.52083C12.5213 -0.506945 15.4395 -0.506945 15.8473 1.52083C15.8709 1.64072 15.8842 1.76368 15.8842 1.88868C15.8842 2.45634 15.6117 2.98403 15.2735 3.41951C14.6762 4.18697 14.3472 5.13067 14.3472 6.10511C14.3472 7.18714 14.7469 8.2333 15.4754 9.03048C15.8607 9.45263 16.2285 9.95779 16.4529 10.5162C16.4539 10.5183 16.4549 10.5203 16.456 10.5234L16.459 10.5295C16.5236 10.6873 16.5759 10.8574 16.6148 11.0388C16.6158 11.0449 16.6168 11.0521 16.6179 11.0583C16.6199 11.0675 16.622 11.0767 16.624 11.0869C16.6261 11.0992 16.6281 11.1115 16.6312 11.1238C16.6322 11.129 16.6332 11.1351 16.6343 11.1402C16.6384 11.1669 16.6425 11.1935 16.6466 11.2191C16.6476 11.2253 16.6486 11.2314 16.6486 11.2376C16.6517 11.2591 16.6548 11.2806 16.6568 11.3031C16.6578 11.3093 16.6589 11.3165 16.6589 11.3226C16.6619 11.3493 16.665 11.3769 16.666 11.4036C16.667 11.4077 16.667 11.4118 16.667 11.4159C16.6691 11.4394 16.6701 11.462 16.6711 11.4855C16.6711 11.4927 16.6722 11.4999 16.6722 11.5081C16.6722 11.5347 16.6732 11.5624 16.6732 11.589C16.6732 11.6167 16.6722 11.6444 16.6722 11.671C16.6722 11.6792 16.6711 11.6864 16.6711 11.6935C16.6701 11.7171 16.6691 11.7396 16.667 11.7632C16.667 11.7673 16.667 11.7714 16.666 11.7755C16.665 11.8022 16.6619 11.8298 16.6589 11.8554C16.6589 11.8626 16.6578 11.8698 16.6568 11.8759C16.6548 11.8985 16.6517 11.92 16.6486 11.9415C16.6486 11.9477 16.6476 11.9538 16.6466 11.9599C16.6425 11.9856 16.6384 12.0122 16.6343 12.0388C16.6332 12.044 16.6322 12.0501 16.6312 12.0552C16.6281 12.0675 16.6261 12.0798 16.624 12.0921C16.622 12.1024 16.6199 12.1116 16.6179 12.1208C16.6168 12.127 16.6158 12.1331 16.6148 12.1403C16.5759 12.3216 16.5236 12.4917 16.459 12.6495L16.456 12.6557C16.4549 12.6588 16.4539 12.6608 16.4529 12.6629C16.2285 13.2213 15.8607 13.7264 15.4754 14.1486C14.7469 14.9458 14.3472 15.9909 14.3472 17.074C14.3472 18.0484 14.6762 18.9921 15.2735 19.7596C15.6117 20.195 15.8842 20.7227 15.8842 21.2904C15.8842 21.4154 15.8709 21.5384 15.8473 21.6582C15.4395 23.686 12.5213 23.686 12.1135 21.6582Z" fill="#EE3434"/>
<path d="M8.35596 3.29114C8.35596 4.16619 8.8734 4.87524 9.51074 4.87524C10.1481 4.87524 10.6645 4.16619 10.6645 3.29114C10.6645 2.41609 10.1481 1.70703 9.51074 1.70703C8.8734 1.70703 8.35596 2.41609 8.35596 3.29114Z" fill="#EE3434"/>
<path d="M17.2944 19.8888C17.2944 20.7638 17.8109 21.4729 18.4492 21.4729C19.0865 21.4729 19.603 20.7638 19.603 19.8888C19.603 19.0137 19.0865 18.3047 18.4492 18.3047C17.8109 18.3047 17.2944 19.0137 17.2944 19.8888Z" fill="#EE3434"/>
<path d="M4.06689 11.5887C4.06689 13.0816 4.94809 14.2917 6.03524 14.2917C7.12342 14.2917 8.00462 13.0816 8.00462 11.5887C8.00462 10.0968 7.12342 8.88672 6.03524 8.88672C4.94809 8.88672 4.06689 10.0968 4.06689 11.5887Z" fill="#EE3434"/>
<path d="M19.9556 11.5887C19.9556 13.0816 20.8378 14.2917 21.9249 14.2917C23.0121 14.2917 23.8943 13.0816 23.8943 11.5887C23.8943 10.0968 23.0121 8.88672 21.9249 8.88672C20.8378 8.88672 19.9556 10.0968 19.9556 11.5887Z" fill="#EE3434"/>
<path d="M0.995605 11.587C0.995605 12.462 1.51203 13.1711 2.14936 13.1711C2.78669 13.1711 3.30414 12.462 3.30414 11.587C3.30414 10.713 2.78669 10.0039 2.14936 10.0039C1.51203 10.0039 0.995605 10.713 0.995605 11.587Z" fill="#EE3434"/>
<path d="M24.6567 11.587C24.6567 12.462 25.1732 13.1711 25.8105 13.1711C26.4488 13.1711 26.9653 12.462 26.9653 11.587C26.9653 10.713 26.4488 10.0039 25.8105 10.0039C25.1732 10.0039 24.6567 10.713 24.6567 11.587Z" fill="#EE3434"/>
</svg>
