<svg width="127" height="25" viewBox="0 0 127 25" fill="none" xmlns="http://www.w3.org/2000/svg">
<path d="M28.7032 4.40196H30.882L38.2839 13.21V4.40196H39.9837V15.9297H38.3148L31.701 8.00244V15.9297H30.0476V6.0245L28.7032 4.40196ZM45.064 15.9297H43.3796V4.40196H51.4923V6.10176H45.064V9.59407C45.4143 9.38804 45.7697 9.26442 46.1302 9.22321C46.4908 9.1717 46.8617 9.14595 47.2428 9.14595H49.7616V10.8612H47.2428C46.872 10.8612 46.5011 10.8921 46.1302 10.9539C45.7697 11.0054 45.4143 11.1239 45.064 11.3093V15.9297ZM54.1241 15.9297V4.40196H55.8085V14.2453H62.2059V15.9297H54.1241ZM69.2418 16.1924C67.5935 16.1924 66.3161 15.7803 65.4095 14.9562C64.5133 14.132 64.0652 12.9628 64.0652 11.4484V4.40196H65.734V11.4484C65.734 12.4477 66.038 13.21 66.6458 13.7354C67.2536 14.2505 68.1189 14.508 69.2418 14.508C70.3647 14.508 71.2301 14.2505 71.8379 13.7354C72.4457 13.21 72.7496 12.4477 72.7496 11.4484V4.40196H74.4185V11.4484C74.4185 12.9628 73.9652 14.132 73.0586 14.9562C72.1624 15.7803 70.8901 16.1924 69.2418 16.1924ZM79.3497 14.2453H86.458V15.9297H77.6654V4.40196H85.778V6.10176H79.3497V9.59407C79.7 9.38804 80.0554 9.26442 80.4159 9.22321C80.7765 9.1717 81.1474 9.14595 81.5285 9.14595H84.0473V10.8612H81.5285C81.1577 10.8612 80.7868 10.8921 80.4159 10.9539C80.0554 11.0054 79.7 11.1239 79.3497 11.3093V14.2453ZM88.1599 4.40196H90.3388L97.7406 13.21V4.40196H99.4404V15.9297H97.7715L91.1578 8.00244V15.9297H89.5043V6.0245L88.1599 4.40196ZM111.629 7.15254C111.196 6.71987 110.692 6.37991 110.115 6.13267C109.538 5.88542 108.92 5.7618 108.26 5.7618C107.622 5.7618 107.024 5.86997 106.468 6.08631C105.911 6.30264 105.427 6.6117 105.015 7.01347C104.613 7.40494 104.294 7.87367 104.057 8.41967C103.831 8.95536 103.717 9.54772 103.717 10.1967C103.717 10.8148 103.841 11.3917 104.088 11.9274C104.335 12.4528 104.67 12.9061 105.092 13.2873C105.515 13.6684 105.999 13.9672 106.545 14.1835C107.091 14.3999 107.668 14.508 108.276 14.508C109.028 14.508 109.718 14.3484 110.346 14.029C110.975 13.6993 111.505 13.2564 111.938 12.7001L112.973 14.1063C112.386 14.7553 111.686 15.2652 110.872 15.6361C110.068 16.007 109.198 16.1924 108.26 16.1924C107.385 16.1924 106.571 16.0327 105.819 15.7133C105.067 15.394 104.413 14.9562 103.856 14.3999C103.3 13.8436 102.862 13.1894 102.543 12.4374C102.223 11.675 102.064 10.8612 102.064 9.99584C102.064 9.1511 102.229 8.36816 102.558 7.64703C102.898 6.9156 103.351 6.28719 103.918 5.7618C104.495 5.22611 105.159 4.80888 105.911 4.51013C106.664 4.21138 107.452 4.062 108.276 4.062C109.151 4.062 109.965 4.22683 110.717 4.55649C111.48 4.87584 112.144 5.31882 112.711 5.88542L111.629 7.15254ZM117.136 14.2453H124.245V15.9297H115.452V4.40196H123.565V6.10176H117.136V9.59407C117.487 9.38804 117.842 9.26442 118.203 9.22321C118.563 9.1717 118.934 9.14595 119.315 9.14595H121.834V10.8612H119.315C118.944 10.8612 118.574 10.8921 118.203 10.9539C117.842 11.0054 117.487 11.1239 117.136 11.3093V14.2453Z" fill="black"/>
<path d="M15.5876 16.1261C15.564 16.0052 15.5507 15.8822 15.5507 15.7572C15.5507 15.1896 15.8233 14.6629 16.1624 14.2264C16.7598 13.4589 17.0887 12.5152 17.0887 11.5408C17.0887 10.4588 16.6881 9.41261 15.9595 8.61543C15.3396 7.93609 14.7617 7.03953 14.7617 6.05689C14.7617 5.88577 14.7791 5.71773 14.8109 5.55379C15.3734 2.65915 19.5366 2.65915 20.0991 5.55379C20.1309 5.71773 20.1483 5.88577 20.1483 6.05689C20.1483 7.03953 19.5704 7.93609 18.9505 8.61543C18.222 9.41261 17.8223 10.4588 17.8223 11.5408C17.8223 12.5152 18.1513 13.4589 18.7476 14.2264C19.0868 14.6629 19.3593 15.1896 19.3593 15.7572C19.3593 15.8822 19.346 16.0052 19.3224 16.1261C18.9146 18.1529 15.9964 18.1529 15.5876 16.1261Z" fill="#EE3434"/>
<path d="M6.64618 7.05522C6.62159 7.17613 6.60827 7.29909 6.60827 7.42409C6.60827 7.99175 6.88185 8.51944 7.21998 8.95492C7.81735 9.72238 8.14626 10.6661 8.14626 11.6405C8.14626 12.7225 7.74665 13.7687 7.01813 14.5659C6.39719 15.2452 5.82031 16.1418 5.82031 17.1244C5.82031 17.2956 5.83773 17.4626 5.8695 17.6275C6.43203 20.5222 10.5941 20.5222 11.1567 17.6275C11.1884 17.4626 11.2059 17.2956 11.2059 17.1244C11.2059 16.1418 10.628 15.2452 10.008 14.5659C9.27952 13.7687 8.87991 12.7225 8.87991 11.6405C8.87991 10.6661 9.20882 9.72238 9.80619 8.95492C10.1443 8.51944 10.4169 7.99175 10.4169 7.42409C10.4169 7.29909 10.4036 7.17613 10.38 7.05522C9.97219 5.02847 7.05399 5.02847 6.64618 7.05522Z" fill="#EE3434"/>
<path d="M11.1199 21.6582C11.0953 21.5384 11.0819 21.4154 11.0819 21.2904C11.0819 20.7227 11.3545 20.195 11.6937 19.7596C12.291 18.9921 12.6199 18.0484 12.6199 17.074C12.6199 15.9909 12.2193 14.9458 11.4918 14.1486C11.1065 13.7264 10.7377 13.2203 10.5133 12.6629L10.5112 12.6567C10.5102 12.6547 10.5092 12.6516 10.5081 12.6495C10.4426 12.4907 10.3903 12.3216 10.3524 12.1403C10.3514 12.1341 10.3493 12.127 10.3483 12.1198C10.3463 12.1106 10.3442 12.1024 10.3432 12.0921C10.3401 12.0809 10.3381 12.0686 10.336 12.0563C10.335 12.0501 10.334 12.044 10.3329 12.0378C10.3278 12.0122 10.3237 11.9856 10.3206 11.9599C10.3196 11.9538 10.3186 11.9477 10.3176 11.9415C10.3145 11.92 10.3124 11.8985 10.3094 11.8759C10.3083 11.8698 10.3083 11.8626 10.3073 11.8554C10.3042 11.8298 10.3022 11.8022 10.3001 11.7755C10.3001 11.7714 10.3001 11.7673 10.2991 11.7632C10.2981 11.7396 10.2971 11.7171 10.296 11.6935C10.295 11.6864 10.295 11.6792 10.295 11.671C10.294 11.6444 10.293 11.6167 10.293 11.589C10.293 11.5624 10.294 11.5347 10.295 11.5081C10.295 11.4999 10.295 11.4927 10.296 11.4855C10.2971 11.462 10.2981 11.4394 10.2991 11.4159C10.3001 11.4118 10.3001 11.4077 10.3001 11.4036C10.3022 11.3769 10.3042 11.3493 10.3073 11.3226C10.3083 11.3165 10.3083 11.3093 10.3094 11.3031C10.3124 11.2806 10.3145 11.2591 10.3176 11.2376C10.3186 11.2314 10.3196 11.2253 10.3206 11.2191C10.3237 11.1935 10.3278 11.1669 10.3329 11.1413C10.334 11.1351 10.335 11.129 10.336 11.1228C10.3381 11.1105 10.3401 11.0982 10.3432 11.0869C10.3442 11.0777 10.3463 11.0685 10.3483 11.0593C10.3493 11.0521 10.3514 11.0449 10.3524 11.0388C10.3903 10.8574 10.4426 10.6873 10.5081 10.5295C10.5092 10.5275 10.5102 10.5254 10.5112 10.5224L10.5133 10.5162C10.7377 9.95881 11.1065 9.45263 11.4918 9.03048C12.2193 8.2333 12.6199 7.18714 12.6199 6.10511C12.6199 5.13067 12.291 4.18697 11.6937 3.41951C11.3545 2.98403 11.0819 2.45634 11.0819 1.88868C11.0819 1.76368 11.0953 1.64072 11.1199 1.52083C11.5277 -0.506945 14.4459 -0.506945 14.8537 1.52083C14.8772 1.64072 14.8906 1.76368 14.8906 1.88868C14.8906 2.45634 14.618 2.98403 14.2799 3.41951C13.6825 4.18697 13.3536 5.13067 13.3536 6.10511C13.3536 7.18714 13.7532 8.2333 14.4817 9.03048C14.867 9.45263 15.2348 9.95779 15.4592 10.5162C15.4603 10.5183 15.4613 10.5203 15.4623 10.5234L15.4654 10.5295C15.5299 10.6873 15.5822 10.8574 15.6211 11.0388C15.6222 11.0449 15.6232 11.0521 15.6242 11.0583C15.6263 11.0675 15.6283 11.0767 15.6304 11.0869C15.6324 11.0992 15.6345 11.1115 15.6375 11.1238C15.6386 11.129 15.6396 11.1351 15.6406 11.1402C15.6447 11.1669 15.6488 11.1935 15.6529 11.2191C15.6539 11.2253 15.655 11.2314 15.655 11.2376C15.658 11.2591 15.6611 11.2806 15.6631 11.3031C15.6642 11.3093 15.6652 11.3165 15.6652 11.3226C15.6683 11.3493 15.6713 11.3769 15.6724 11.4036C15.6734 11.4077 15.6734 11.4118 15.6734 11.4159C15.6754 11.4394 15.6765 11.462 15.6775 11.4855C15.6775 11.4927 15.6785 11.4999 15.6785 11.5081C15.6785 11.5347 15.6795 11.5624 15.6795 11.589C15.6795 11.6167 15.6785 11.6444 15.6785 11.671C15.6785 11.6792 15.6775 11.6864 15.6775 11.6935C15.6765 11.7171 15.6754 11.7396 15.6734 11.7632C15.6734 11.7673 15.6734 11.7714 15.6724 11.7755C15.6713 11.8022 15.6683 11.8298 15.6652 11.8554C15.6652 11.8626 15.6642 11.8698 15.6631 11.8759C15.6611 11.8985 15.658 11.92 15.655 11.9415C15.655 11.9477 15.6539 11.9538 15.6529 11.9599C15.6488 11.9856 15.6447 12.0122 15.6406 12.0388C15.6396 12.044 15.6386 12.0501 15.6375 12.0552C15.6345 12.0675 15.6324 12.0798 15.6304 12.0921C15.6283 12.1024 15.6263 12.1116 15.6242 12.1208C15.6232 12.127 15.6222 12.1331 15.6211 12.1403C15.5822 12.3216 15.5299 12.4917 15.4654 12.6495L15.4623 12.6557C15.4613 12.6588 15.4603 12.6608 15.4592 12.6629C15.2348 13.2213 14.867 13.7264 14.4817 14.1486C13.7532 14.9458 13.3536 15.9909 13.3536 17.074C13.3536 18.0484 13.6825 18.9921 14.2799 19.7596C14.618 20.195 14.8906 20.7227 14.8906 21.2904C14.8906 21.4154 14.8772 21.5384 14.8537 21.6582C14.4459 23.686 11.5277 23.686 11.1199 21.6582Z" fill="#EE3434"/>
<path d="M7.35938 3.29114C7.35938 4.16619 7.87682 4.87524 8.51415 4.87524C9.15148 4.87524 9.66791 4.16619 9.66791 3.29114C9.66791 2.41609 9.15148 1.70703 8.51415 1.70703C7.87682 1.70703 7.35938 2.41609 7.35938 3.29114Z" fill="#EE3434"/>
<path d="M16.2969 19.8888C16.2969 20.7638 16.8133 21.4729 17.4517 21.4729C18.089 21.4729 18.6054 20.7638 18.6054 19.8888C18.6054 19.0137 18.089 18.3047 17.4517 18.3047C16.8133 18.3047 16.2969 19.0137 16.2969 19.8888Z" fill="#EE3434"/>
<path d="M3.07031 11.5887C3.07031 13.0816 3.95151 14.2917 5.03866 14.2917C6.12684 14.2917 7.00803 13.0816 7.00803 11.5887C7.00803 10.0968 6.12684 8.88672 5.03866 8.88672C3.95151 8.88672 3.07031 10.0968 3.07031 11.5887Z" fill="#EE3434"/>
<path d="M18.9609 11.5887C18.9609 13.0816 19.8432 14.2917 20.9303 14.2917C22.0175 14.2917 22.8997 13.0816 22.8997 11.5887C22.8997 10.0968 22.0175 8.88672 20.9303 8.88672C19.8432 8.88672 18.9609 10.0968 18.9609 11.5887Z" fill="#EE3434"/>
<path d="M0 11.587C0 12.462 0.516423 13.1711 1.15375 13.1711C1.79109 13.1711 2.30853 12.462 2.30853 11.587C2.30853 10.713 1.79109 10.0039 1.15375 10.0039C0.516423 10.0039 0 10.713 0 11.587Z" fill="#EE3434"/>
<path d="M23.6602 11.587C23.6602 12.462 24.1766 13.1711 24.8139 13.1711C25.4523 13.1711 25.9687 12.462 25.9687 11.587C25.9687 10.713 25.4523 10.0039 24.8139 10.0039C24.1766 10.0039 23.6602 10.713 23.6602 11.587Z" fill="#EE3434"/>
</svg>
