<svg width="239" height="11" viewBox="0 0 239 11" fill="none" xmlns="http://www.w3.org/2000/svg">
<path opacity="0.5" d="M2.82 11H1.49012e-08L4.4 5.52L0.58 0.64H3.4L5.84 3.76L8.34 0.64H11.08L7.2 5.5L11.52 11L8.72 11L5.78 7.28L2.82 11ZM116.336 11H113.516L117.916 5.52L114.096 0.64L116.916 0.64L119.356 3.76L121.856 0.64H124.596L120.716 5.5L125.036 11H122.236L119.296 7.28L116.336 11ZM229.851 11H227.031L231.431 5.52L227.611 0.64H230.431L232.871 3.76L235.371 0.64L238.111 0.64L234.231 5.5L238.551 11H235.751L232.811 7.28L229.851 11Z" fill="#FF0000"/>
</svg>
