<svg width="11" height="43" viewBox="0 0 11 43" fill="none" xmlns="http://www.w3.org/2000/svg">
<path opacity="0.25" d="M-1.66978e-07 2.82L-4.37114e-08 -9.03038e-07L5.48 4.4L10.36 0.58L10.36 3.4L7.24 5.84L10.36 8.34L10.36 11.08L5.5 7.2L-5.47267e-07 11.52L-4.24875e-07 8.72L3.72 5.78L-1.66978e-07 2.82ZM-8.45187e-07 18.3356L-7.21921e-07 15.5156L5.48 19.9156L10.36 16.0956L10.36 18.9156L7.24 21.3556L10.36 23.8556L10.36 26.5956L5.5 22.7156L-1.22548e-06 27.0356L-1.10308e-06 24.2356L3.72 21.2956L-8.45187e-07 18.3356ZM-1.5234e-06 33.8512L-1.40013e-06 31.0312L5.48 35.4312L10.36 31.6112L10.36 34.4312L7.24 36.8712L10.36 39.3712L10.36 42.1113L5.5 38.2312L-1.90369e-06 42.5513L-1.78129e-06 39.7512L3.72 36.8112L-1.5234e-06 33.8512Z" fill="#FF0000"/>
</svg>
