<svg width="22" height="22" viewBox="0 0 22 22" fill="none" xmlns="http://www.w3.org/2000/svg">
<path d="M9.67571 21.3955L0.745154 12.3058C0.609842 12.1681 0.513771 12.0189 0.45694 11.8582C0.401011 11.6975 0.373047 11.5253 0.373047 11.3417C0.373047 11.1581 0.401011 10.9859 0.45694 10.8253C0.513771 10.6646 0.609842 10.5154 0.745154 10.3777L9.67571 1.2879C9.92378 1.03541 10.2336 0.903197 10.6053 0.891261C10.9779 0.880243 11.2994 1.01246 11.5701 1.2879C11.8407 1.5404 11.9819 1.85578 11.9936 2.23406C12.0044 2.61326 11.8745 2.94059 11.6039 3.21603L4.97364 9.96448H20.0947C20.4781 9.96448 20.7997 10.0962 21.0595 10.3597C21.3184 10.6242 21.4478 10.9515 21.4478 11.3417C21.4478 11.7319 21.3184 12.0588 21.0595 12.3223C20.7997 12.5867 20.4781 12.7189 20.0947 12.7189H4.97364L11.6039 19.4674C11.852 19.7199 11.9819 20.0412 11.9936 20.4315C12.0044 20.8217 11.8745 21.143 11.6039 21.3955C11.3558 21.671 11.0401 21.8087 10.6567 21.8087C10.2733 21.8087 9.94633 21.671 9.67571 21.3955Z" fill="black"/>
</svg>
