<svg width="8" height="8" viewBox="0 0 8 8" fill="none" xmlns="http://www.w3.org/2000/svg">
<path d="M3.25015 0.5C3.25015 0.223437 3.47359 0 3.75015 0H4.25015C4.52671 0 4.75015 0.223437 4.75015 0.5V2.70156L6.6564 1.60156C6.89546 1.46406 7.20171 1.54531 7.33921 1.78437L7.58921 2.21719C7.72671 2.45625 7.64546 2.7625 7.4064 2.9L5.50015 4L7.4064 5.1C7.64546 5.2375 7.72671 5.54375 7.58921 5.78281L7.33921 6.21562C7.20171 6.45469 6.89546 6.5375 6.6564 6.39844L4.75015 5.29844V7.5C4.75015 7.77656 4.52671 8 4.25015 8H3.75015C3.47359 8 3.25015 7.77656 3.25015 7.5V5.29844L1.3439 6.4C1.10484 6.5375 0.798588 6.45625 0.661088 6.21719L0.411088 5.78438C0.273588 5.54531 0.354838 5.23906 0.5939 5.10156L2.50015 4L0.5939 2.9C0.354838 2.7625 0.273588 2.45625 0.411088 2.21719L0.661088 1.78437C0.798588 1.54375 1.10484 1.4625 1.3439 1.6L3.25015 2.7V0.5Z" fill="black"/>
</svg>
